# xmcd
#
# Track frame offsets:
#	150
#	17108
#	36305
#	52951
#	68508
#	84988
#	99765
#	114406
#	130562
#	146920
#	162606
#	177009
#	193739
#	208296
#	225364
#	241835
#	258758
#	274696
#	286781
#	299974
#	315661
#
# Disc length: 4410 seconds
# Revision: 1
# Processed by: cddbd v1.5.2PL0 Copyright (c) Steve Scherf et al.
# Submitted via: dBpowerAMP V12.0
#
DISCID=28113815
DTITLE=Various Artist - Country RadioMay 2009
DYEAR=2009
DGENRE=Country
TTITLE0=Keith Urban - Kiss A Girl
TTITLE1=Brad Paisley - Then
TTITLE2=Johnny Reid - A Woman Like You
TTITLE3=Jack Ingram - Barefoot and Crazy
TTITLE4=Higgins The  - Second Hand Car
TTITLE5=Aaron Pritchett - Hell Bent For Buffalo
TTITLE6=Kenny Chesney - Out Last Night
TTITLE7=Toby Keith - Lost You Anyway
TTITLE8=Jonathan Singleton and The Grove - Livin In Paradise
TTITLE9=Wilkinsons The  - You Heal Me
TTITLE10=Jo Dee Messina - Shine
TTITLE11=Jessica Simpson - Pray Out Loud
TTITLE12=Darryl Worley - Sounds Like Life To Me
TTITLE13=Emerson Drive - Believe
TTITLE14=Randy Rogers Band - In My Arms Instead
TTITLE15=Jessica Harp - Boy Like Me
TTITLE16=Emily West - That Kind Of Happy
TTITLE17=Rodney Atkins - 15 Minutes
TTITLE18=Joey and Rory - Play The Song
TTITLE19=Codie Prevost - One of Those Days
TTITLE20=Jason Blaine - Give It To Me
EXTD=
EXTT0=
EXTT1=
EXTT2=
EXTT3=
EXTT4=
EXTT5=
EXTT6=
EXTT7=
EXTT8=
EXTT9=
EXTT10=
EXTT11=
EXTT12=
EXTT13=
EXTT14=
EXTT15=
EXTT16=
EXTT17=
EXTT18=
EXTT19=
EXTT20=
PLAYORDER=
